<svg width="128" height="128" viewBox="0 0 128 128" fill="none" xmlns="http://www.w3.org/2000/svg">
    <path
        d="M90.6667 112.213H37.3333C20.4267 112.213 6.66666 98.4533 6.66666 81.5467V30.4533C6.66666 23.52 9.86666 21.12 11.7867 20.32C13.7067 19.52 17.6533 18.9333 22.56 23.84L36.3733 37.6533C36.9067 38.1867 37.76 38.1867 38.24 37.6533L57.3867 18.5067C60.9067 14.9867 67.0933 14.9867 70.56 18.5067L89.7067 37.6533C90.24 38.1867 91.0933 38.1867 91.5733 37.6533L105.387 23.84C110.293 18.9333 114.24 19.5733 116.16 20.32C118.08 21.12 121.28 23.4667 121.28 30.4533V81.6C121.333 99.8933 109.013 112.213 90.6667 112.213Z"
        fill="#f9a607" />
</svg>